HIERARCHY
ROOT root
{
	OFFSET	0	13.1	24.9
	CHANNELS 6  Xposition Yposition Zposition Xrotation Yrotation Zrotation
	JOINT spine_1
	{
		OFFSET	0	9.99999	0
		CHANNELS 3  Xrotation Yrotation Zrotation
		JOINT spine_2
		{
			OFFSET	0	112	-10
			CHANNELS 3  Xrotation Yrotation Zrotation
			JOINT spine_3
			{
				OFFSET	0	206.5	19.3
				CHANNELS 3  Xrotation Yrotation Zrotation
				JOINT spine_4
				{
					OFFSET	0	110.4	14.6
					CHANNELS 3  Xrotation Yrotation Zrotation
					JOINT neck_1
					{
						OFFSET	0	71.8	-50.3
						CHANNELS 3  Xrotation Yrotation Zrotation
						JOINT neck_2
						{
							OFFSET	0	86.2	-25.8
							CHANNELS 3  Xrotation Yrotation Zrotation
							JOINT head_ee
							{
								OFFSET	0	179.8	-8.7
								CHANNELS 3  Xrotation Yrotation Zrotation
								End Site
								{
									OFFSET	1	0	0
								}
							}
						}
					}
					JOINT left_clavicle
					{
						OFFSET	-43.2	22.4	-70.8
						CHANNELS 3  Xrotation Yrotation Zrotation
						JOINT left_shoulder
						{
							OFFSET	-93.9	-5.79999	48.7
							CHANNELS 3  Xrotation Yrotation Zrotation
							JOINT left_elbow
							{
								OFFSET	-291.4	-30.8	15.2
								CHANNELS 3  Xrotation Yrotation Zrotation
								JOINT left_lowarm_twist
								{
									OFFSET	-110.7	-3.89999	13.6
									CHANNELS 3  Xrotation Yrotation Zrotation
									JOINT left_hand
									{
										OFFSET	-110.7	-3.89999	13.6
										CHANNELS 3  Xrotation Yrotation Zrotation
										JOINT left_ee
										{
											OFFSET	-80.8	-5.10001	12.1
											CHANNELS 3  Xrotation Yrotation Zrotation
											End Site
											{
												OFFSET	1	0	0
											}
										}
									}
								}
							}
						}
					}
					JOINT right_clavicle
					{
						OFFSET	43.2	22.4	-70.8
						CHANNELS 3  Xrotation Yrotation Zrotation
						JOINT right_shoulder
						{
							OFFSET	93.9	-5.79999	48.7
							CHANNELS 3  Xrotation Yrotation Zrotation
							JOINT right_elbow
							{
								OFFSET	291.4	-30.8	15.2
								CHANNELS 3  Xrotation Yrotation Zrotation
								JOINT right_lowarm_twist
								{
									OFFSET	110.7	-3.89999	13.6
									CHANNELS 3  Xrotation Yrotation Zrotation
									JOINT right_hand
									{
										OFFSET	110.7	-3.89999	13.6
										CHANNELS 3  Xrotation Yrotation Zrotation
										JOINT right_ee
										{
											OFFSET	80.8	-5.10001	12.1
											CHANNELS 3  Xrotation Yrotation Zrotation
											End Site
											{
												OFFSET	1	0	0
											}
										}
									}
								}
							}
						}
					}
				}
			}
		}
	}
	JOINT left_hip
	{
		OFFSET	-82.8	-127.5	0.300001
		CHANNELS 3  Xrotation Yrotation Zrotation
		JOINT left_knee
		{
			OFFSET	-28.2	-396.7	2.2
			CHANNELS 3  Xrotation Yrotation Zrotation
			JOINT left_ankle
			{
				OFFSET	-11.7	-411.3	35.4
				CHANNELS 3  Xrotation Yrotation Zrotation
				JOINT left_toes
				{
					OFFSET	0	-60	-88.6
					CHANNELS 3  Xrotation Yrotation Zrotation
					JOINT left_foot_ee
					{
						OFFSET	-22.5	-16.5	-42.2
						CHANNELS 3  Xrotation Yrotation Zrotation
						End Site
						{
							OFFSET	1	0	0
						}
					}
				}
			}
		}
	}
	JOINT right_hip
	{
		OFFSET	82.8	-127.5	0.300001
		CHANNELS 3  Xrotation Yrotation Zrotation
		JOINT right_knee
		{
			OFFSET	28.2	-396.7	2.2
			CHANNELS 3  Xrotation Yrotation Zrotation
			JOINT right_ankle
			{
				OFFSET	11.7	-411.3	35.4
				CHANNELS 3  Xrotation Yrotation Zrotation
				JOINT right_toes
				{
					OFFSET	0	-60	-88.6
					CHANNELS 3  Xrotation Yrotation Zrotation
					JOINT right_foot_ee
					{
						OFFSET	22.5	-16.5	-42.2
						CHANNELS 3  Xrotation Yrotation Zrotation
						End Site
						{
							OFFSET	1	0	0
						}
					}
				}
			}
		}
	}
}
MOTION
Frames: 5
Frame Time: 0.02
3177.02 653.055 -1669.29 -29.4231120446 76.3458618318 31.143458539 1.98732 0.336665 -0.119327 1.98726 0.343576 -0.0976619 1.98667 0.355407 -0.0356098 1.98683 0.345323 -0.0912935 -15.9905 7.22458 2.44714 -16.124 12.4393 4.83199 -0.0 0.0 -0.0 -0.110189 23.2817 2.54334 -28.2473 -13.7642 69.9295 0.406827 -11.3944 0.0405869 -47.5547 -3.78802 4.54894 -0.47429 6.33464 -0.453137 -0.0 0.0 -0.0 11.685 16.4677 -23.4197 2.46664 45.6766 -49.48 1.83806 42.3144 -0.711408 77.2943 3.53028 8.44995 3.84552 25.7946 -14.0213 0.0 0.0 0.0 32.4043 -11.6233 -8.33695 2.11452 -0.0928327 -0.311169 -11.3435 6.64892 1.69512 1.12205 -0.0 -0.0 -0.0 0.0 -0.0 -10.1421 -9.32567 1.59417 -12.621 -0.310569 -1.90807 37.4582 28.4801 5.56059 -3.16937 0.0 0.0 0.0 0.0 0.0 
3120.69853023 668.043 -1652.93299101 -31.1975004403 73.7168932706 32.7939820195 2.05174 0.24903 0.13525 2.05172 0.239918 0.150823 2.05236 0.209818 0.190486 2.05239 0.237268 0.154958 -8.29487 9.18243 1.47389 -8.32767 16.1371 3.50963 -0.0 0.0 -0.0 0.734677 23.9558 3.76271 -25.0823 -16.8222 69.5215 0.462709 -12.9101 0.0523517 -49.856 -4.05492 4.67535 -0.24581 10.2692 2.67685 -0.0 0.0 -0.0 12.0285 15.7031 -24.237 -0.859872 43.7819 -49.2119 1.95579 44.0885 -0.79201 74.7334 3.24575 8.28546 3.62764 21.4841 -14.9044 0.0 0.0 0.0 29.5267 -9.99874 -6.48144 2.77053 -0.123965 -0.407003 -7.38621 10.559 1.09754 -3.56773 0.0 0.0 -0.0 0.0 -0.0 -7.17098 -9.84013 3.75463 -19.1166 -0.305103 -2.90415 34.0734 17.0859 4.66873 1.81656 -0.0 -0.0 0.0 0.0 0.0 
3096.6064555 671.941 -1652.12096215 -32.8087679725 74.2116596898 34.5830433453 1.97979 0.259761 0.300707 1.9798 0.2401 0.316627 1.98115 0.180539 0.353986 1.98105 0.234179 0.321031 -4.73523 9.27434 1.44324 -4.67476 15.9495 3.04176 -0.0 0.0 -0.0 0.674867 24.4164 3.72246 -24.621 -18.2641 68.2701 0.571405 -15.8047 0.0793137 -50.6064 -4.14302 4.71424 -0.282531 12.742 3.46167 -0.0 0.0 -0.0 11.9949 14.4463 -24.2039 -0.843114 40.69 -50.8139 2.10706 46.2214 -0.899286 73.3332 3.09337 8.19021 3.70853 20.621 -15.9103 0.0 0.0 0.0 27.7489 -10.1766 -6.2886 3.24518 -0.147176 -0.476121 -4.48188 10.4277 0.662562 -4.94989 0.0 0.0 -0.0 0.0 -0.0 -6.63964 -10.4818 4.14905 -21.9061 -0.268123 -3.33054 33.2836 13.0059 4.46479 3.08387 -0.0 -0.0 0.0 0.0 0.0 
3096.69695687 671.941 -1651.70242649 -33.3898857128 74.4616233024 35.1865715719 1.97979 0.259761 0.300707 1.9798 0.2401 0.316627 1.98115 0.180539 0.353986 1.98105 0.234179 0.321031 -4.73523 9.27434 1.44324 -4.67476 15.9495 3.04176 -0.0 0.0 -0.0 0.674867 24.4164 3.72246 -24.621 -18.2641 68.2701 0.571405 -15.8047 0.0793137 -50.6064 -4.14302 4.71424 -0.282531 12.742 3.46167 -0.0 0.0 -0.0 11.9949 14.4463 -24.2039 -0.843114 40.69 -50.8139 2.10706 46.2214 -0.899286 73.3332 3.09337 8.19021 3.70853 20.621 -15.9103 0.0 0.0 0.0 27.7489 -10.1766 -6.2886 3.24518 -0.147176 -0.476121 -4.48188 10.4277 0.662562 -4.94989 0.0 0.0 -0.0 0.0 -0.0 -6.63964 -10.4818 4.14905 -21.9061 -0.268123 -3.33054 33.2836 13.0059 4.46479 3.08387 -0.0 -0.0 0.0 0.0 0.0 
3017.37939425 681.324 -1648.6562898 -33.0832705844 75.5585243568 34.8906983822 1.86794 -0.182919 0.675671 1.86817 -0.225542 0.662663 1.86551 -0.34006 0.611844 1.86507 -0.239165 0.657869 -5.22599 10.0864 2.99596 -5.1642 16.3454 4.81891 -0.0 0.0 -0.0 1.32134 22.94 4.48641 -12.8296 -25.2957 65.2226 0.844074 -22.6911 0.169363 -54.733 -4.63594 4.90726 -0.637524 21.3434 4.81415 -0.0 0.0 -0.0 10.3868 15.3762 -20.5387 -0.492988 35.941 -57.5722 1.5978 38.3588 -0.5558 68.2135 2.55713 7.81106 3.41008 15.4444 -16.4953 0.0 0.0 0.0 22.7417 -8.67723 -4.02159 5.0493 -0.240613 -0.737059 4.61244 12.5391 -0.668793 -9.27206 0.0 0.0 -0.0 0.0 -0.0 -4.6612 -11.1641 6.87775 -28.3895 -0.102374 -4.31117 29.7345 -4.75361 3.86077 2.4767 -0.0 -0.0 0.0 0.0 0.0 
